<svg width="195" height="56" viewBox="0 0 195 56" fill="none" xmlns="http://www.w3.org/2000/svg">
<g clip-path="url(#clip0_798_6839)">
<path d="M193.343 49.542C193.343 52.5263 190.875 54.9437 187.823 54.9437H7.17762C4.12678 54.9437 1.65039 52.5263 1.65039 49.542V6.46559C1.65039 3.48269 4.12678 1.05688 7.17762 1.05688H187.821C190.875 1.05688 193.341 3.48269 193.341 6.46559L193.343 49.542Z" fill="white"/>
<path d="M43.8343 27.6973C43.7926 23.1851 47.6236 20.9899 47.7988 20.8877C45.6291 17.8035 42.2663 17.3821 41.0845 17.3485C38.2601 17.0587 35.5204 18.9963 34.0816 18.9963C32.6142 18.9963 30.3986 17.3765 28.0107 17.4241C24.9378 17.4703 22.0632 19.2049 20.4866 21.8985C17.2328 27.3907 19.6595 35.4617 22.7768 39.9011C24.3362 42.0753 26.1584 44.5029 28.5434 44.4175C30.8767 44.3237 31.7483 42.9671 34.5641 42.9671C37.3541 42.9671 38.1725 44.4175 40.6049 44.3629C43.1091 44.3237 44.6857 42.1789 46.1906 39.9851C47.9926 37.4931 48.7163 35.0389 48.745 34.9129C48.6862 34.8933 43.8816 33.1055 43.8343 27.6973Z" fill="#101828"/>
<path d="M39.2394 14.4281C40.4944 12.8979 41.353 10.8161 41.1147 8.70349C39.2983 8.78189 37.0267 9.92849 35.7186 11.4251C34.5612 12.7439 33.5274 14.9055 33.7945 16.9383C35.8349 17.0867 37.9298 15.9345 39.2394 14.4281Z" fill="#101828"/>
<path d="M77.603 44.1053H74.3421L72.5558 38.6327H66.347L64.6455 44.1053H61.4707L67.6221 25.4741H71.4215L77.603 44.1053ZM72.0174 36.3367L70.402 31.4717C70.2311 30.9747 69.9109 29.8043 69.4385 27.9619H69.3811C69.193 28.7543 68.89 29.9247 68.4736 31.4717L66.8869 36.3367H72.0174Z" fill="#101828"/>
<path d="M93.4215 37.2232C93.4215 39.508 92.7882 41.314 91.5218 42.6398C90.3874 43.82 88.9788 44.4094 87.2974 44.4094C85.4824 44.4094 84.1786 43.7738 83.3845 42.5026H83.3271V49.5796H80.2658V35.0938C80.2658 33.6574 80.227 32.1832 80.1523 30.6712H82.8447L83.0155 32.8006H83.073C84.0939 31.1962 85.6432 30.3954 87.7224 30.3954C89.3478 30.3954 90.7048 31.0212 91.7903 32.2742C92.8787 33.5286 93.4215 35.1778 93.4215 37.2232ZM90.3027 37.3324C90.3027 36.0248 90.0012 34.9468 89.3952 34.0984C88.7333 33.2136 87.8444 32.7712 86.7302 32.7712C85.9749 32.7712 85.2885 33.0176 84.6754 33.5034C84.0609 33.9934 83.6588 34.6332 83.4707 35.4256C83.3759 35.7952 83.3285 36.0976 83.3285 36.3356V38.5756C83.3285 39.5528 83.6358 40.3774 84.2504 41.0508C84.865 41.7242 85.6633 42.0602 86.6455 42.0602C87.7985 42.0602 88.6959 41.6262 89.3378 40.761C89.9811 39.8944 90.3027 38.752 90.3027 37.3324Z" fill="#101828"/>
<path d="M109.27 37.2232C109.27 39.508 108.636 41.314 107.369 42.6398C106.236 43.82 104.827 44.4094 103.146 44.4094C101.331 44.4094 100.027 43.7738 99.2342 42.5026H99.1767V49.5796H96.1154V35.0938C96.1154 33.6574 96.0766 32.1832 96.002 30.6712H98.6943L98.8651 32.8006H98.9226C99.942 31.1962 101.491 30.3954 103.572 30.3954C105.196 30.3954 106.553 31.0212 107.641 32.2742C108.725 33.5286 109.27 35.1778 109.27 37.2232ZM106.151 37.3324C106.151 36.0248 105.848 34.9468 105.242 34.0984C104.58 33.2136 103.694 32.7712 102.578 32.7712C101.822 32.7712 101.137 33.0176 100.522 33.5034C99.9076 33.9934 99.507 34.6332 99.3189 35.4256C99.2255 35.7952 99.1767 36.0976 99.1767 36.3356V38.5756C99.1767 39.5528 99.484 40.3774 100.096 41.0508C100.71 41.7228 101.509 42.0602 102.494 42.0602C103.647 42.0602 104.544 41.6262 105.186 40.761C105.829 39.8944 106.151 38.752 106.151 37.3324Z" fill="#101828"/>
<path d="M126.99 38.8808C126.99 40.4656 126.425 41.755 125.292 42.7504C124.047 43.8382 122.314 44.3814 120.087 44.3814C118.031 44.3814 116.383 43.995 115.135 43.2208L115.844 40.733C117.188 41.5254 118.663 41.923 120.27 41.923C121.423 41.923 122.32 41.6682 122.965 41.1614C123.607 40.6546 123.927 39.9742 123.927 39.1258C123.927 38.3698 123.663 37.7328 123.133 37.2162C122.606 36.6996 121.726 36.2194 120.496 35.7756C117.151 34.559 115.479 32.7768 115.479 30.4332C115.479 28.9016 116.065 27.6458 117.238 26.6686C118.407 25.69 119.967 25.2014 121.917 25.2014C123.655 25.2014 125.1 25.4968 126.253 26.0862L125.488 28.5194C124.411 27.9482 123.193 27.6626 121.83 27.6626C120.753 27.6626 119.912 27.9216 119.309 28.4368C118.799 28.8974 118.544 29.4588 118.544 30.1238C118.544 30.8602 118.835 31.4692 119.421 31.948C119.931 32.3904 120.857 32.8692 122.201 33.3858C123.845 34.0312 125.053 34.7858 125.829 35.651C126.603 36.5134 126.99 37.5928 126.99 38.8808Z" fill="#101828"/>
<path d="M137.11 32.9114H133.736V39.434C133.736 41.093 134.33 41.9218 135.522 41.9218C136.069 41.9218 136.523 41.8756 136.882 41.7832L136.967 44.0498C136.363 44.2696 135.569 44.3802 134.586 44.3802C133.377 44.3802 132.432 44.0204 131.75 43.3022C131.071 42.5826 130.729 41.3758 130.729 39.6804V32.9086H128.719V30.6686H130.729V28.2088L133.736 27.324V30.6686H137.11V32.9114Z" fill="#101828"/>
<path d="M152.336 37.2777C152.336 39.3427 151.73 41.0381 150.521 42.3639C149.253 43.7289 147.57 44.4093 145.472 44.4093C143.451 44.4093 141.841 43.7555 140.64 42.4479C139.44 41.1403 138.84 39.4897 138.84 37.5003C138.84 35.4185 139.457 33.7133 140.696 32.3875C141.933 31.0603 143.601 30.3967 145.699 30.3967C147.721 30.3967 149.348 31.0505 150.575 32.3595C151.75 33.6293 152.336 35.2687 152.336 37.2777ZM149.16 37.3743C149.16 36.1353 148.888 35.0727 148.338 34.1865C147.696 33.1141 146.779 32.5793 145.59 32.5793C144.359 32.5793 143.425 33.1155 142.783 34.1865C142.233 35.0741 141.961 36.1535 141.961 37.4303C141.961 38.6693 142.233 39.7319 142.783 40.6167C143.445 41.6891 144.369 42.2239 145.563 42.2239C146.732 42.2239 147.649 41.6779 148.311 40.5887C148.875 39.6857 149.16 38.6119 149.16 37.3743Z" fill="#101828"/>
<path d="M162.286 33.2962C161.983 33.2416 161.66 33.2136 161.321 33.2136C160.244 33.2136 159.411 33.6098 158.825 34.4036C158.316 35.1036 158.06 35.9884 158.06 37.0566V44.1056H155L155.029 34.902C155.029 33.3536 154.99 31.9438 154.914 30.6726H157.581L157.693 33.243H157.777C158.1 32.3596 158.61 31.6484 159.308 31.115C159.99 30.6348 160.727 30.3954 161.521 30.3954C161.804 30.3954 162.059 30.415 162.286 30.45V33.2962Z" fill="#101828"/>
<path d="M175.978 36.7527C175.978 37.2875 175.942 37.7383 175.866 38.1065H166.682C166.718 39.4337 167.161 40.4487 168.014 41.1487C168.788 41.7745 169.789 42.0881 171.018 42.0881C172.378 42.0881 173.619 41.8767 174.734 41.4525L175.214 43.5245C173.91 44.0789 172.371 44.3547 170.595 44.3547C168.458 44.3547 166.781 43.7415 165.56 42.5165C164.343 41.2915 163.732 39.6465 163.732 37.5829C163.732 35.5571 164.3 33.8701 165.435 32.5247C166.624 31.0883 168.231 30.3701 170.253 30.3701C172.239 30.3701 173.742 31.0883 174.763 32.5247C175.571 33.6657 175.978 35.0769 175.978 36.7527ZM173.059 35.9785C173.079 35.0937 172.879 34.3293 172.464 33.6839C171.934 32.8537 171.12 32.4393 170.025 32.4393C169.024 32.4393 168.21 32.8439 167.588 33.6559C167.078 34.3013 166.775 35.0755 166.682 35.9771H173.059V35.9785Z" fill="#101828"/>
<path d="M71.0056 14.0128C71.0056 15.6606 70.4987 16.901 69.4864 17.734C68.5488 18.5026 67.2162 18.8876 65.4903 18.8876C64.6345 18.8876 63.9022 18.8512 63.2891 18.7784V9.77499C64.0889 9.64899 64.9504 9.58459 65.8809 9.58459C67.525 9.58459 68.7641 9.93319 69.5998 10.6304C70.536 11.4186 71.0056 12.5456 71.0056 14.0128ZM69.4189 14.0534C69.4189 12.9852 69.1289 12.1662 68.5488 11.595C67.9687 11.0252 67.1215 10.7396 66.0058 10.7396C65.5319 10.7396 65.1284 10.7704 64.7939 10.8348V17.6794C64.9791 17.7074 65.318 17.72 65.8105 17.72C66.9621 17.72 67.8509 17.4078 68.477 16.7834C69.103 16.159 69.4189 15.249 69.4189 14.0534Z" fill="#101828"/>
<path d="M79.4186 15.4519C79.4186 16.4669 79.1214 17.2985 78.5269 17.9509C77.9037 18.6215 77.0781 18.9561 76.0471 18.9561C75.0535 18.9561 74.2623 18.6355 73.6721 17.9915C73.0834 17.3489 72.7891 16.5383 72.7891 15.5611C72.7891 14.5391 73.092 13.7005 73.7009 13.0495C74.3097 12.3985 75.1281 12.0723 76.1591 12.0723C77.1528 12.0723 77.9511 12.3929 78.5556 13.0355C79.13 13.6599 79.4186 14.4663 79.4186 15.4519ZM77.8578 15.4995C77.8578 14.8905 77.7228 14.3683 77.4543 13.9329C77.1384 13.4065 76.689 13.1433 76.1046 13.1433C75.5 13.1433 75.0406 13.4065 74.7247 13.9329C74.4547 14.3683 74.3212 14.8989 74.3212 15.5261C74.3212 16.1351 74.4561 16.6573 74.7247 17.0927C75.0506 17.6191 75.5043 17.8823 76.0902 17.8823C76.6646 17.8823 77.1154 17.6149 77.4399 17.0787C77.7185 16.6349 77.8578 16.1085 77.8578 15.4995Z" fill="#101828"/>
<path d="M90.6998 12.2068L88.5818 18.8064H87.2033L86.326 15.9406C86.1034 15.2252 85.9225 14.514 85.7818 13.8084H85.7545C85.6239 14.5336 85.4429 15.2434 85.2103 15.9406L84.2784 18.8064H82.8842L80.8926 12.2068H82.439L83.2044 15.3442C83.3896 16.0862 83.5418 16.7932 83.6639 17.4624H83.6911C83.8031 16.9108 83.9884 16.208 84.2497 15.3582L85.2103 12.2082H86.4366L87.357 15.291C87.5795 16.0428 87.7605 16.7666 87.8998 17.4638H87.9414C88.0433 16.7848 88.197 16.061 88.4009 15.291L89.2222 12.2082H90.6998V12.2068Z" fill="#101828"/>
<path d="M98.4995 18.8063H96.9947V15.0263C96.9947 13.8615 96.541 13.2791 95.6306 13.2791C95.184 13.2791 94.8236 13.4387 94.5436 13.7593C94.2665 14.0799 94.1258 14.4579 94.1258 14.8905V18.8049H92.621V14.0925C92.621 13.5129 92.6023 12.8843 92.5664 12.2039H93.8889L93.9592 13.2357H94.0009C94.176 12.9151 94.4374 12.6505 94.7806 12.4391C95.1884 12.1927 95.645 12.0681 96.1447 12.0681C96.7765 12.0681 97.302 12.2669 97.7198 12.6659C98.2396 13.1545 98.4995 13.8839 98.4995 14.8527V18.8063Z" fill="#101828"/>
<path d="M102.65 18.8064H101.146V9.17859H102.65V18.8064Z" fill="#101828"/>
<path d="M111.508 15.4519C111.508 16.4669 111.211 17.2985 110.617 17.9509C109.994 18.6215 109.166 18.9561 108.137 18.9561C107.142 18.9561 106.351 18.6355 105.762 17.9915C105.173 17.3489 104.879 16.5383 104.879 15.5611C104.879 14.5391 105.182 13.7005 105.791 13.0495C106.4 12.3985 107.218 12.0723 108.248 12.0723C109.243 12.0723 110.04 12.3929 110.645 13.0355C111.22 13.6599 111.508 14.4663 111.508 15.4519ZM109.946 15.4995C109.946 14.8905 109.811 14.3683 109.543 13.9329C109.228 13.4065 108.777 13.1433 108.194 13.1433C107.588 13.1433 107.129 13.4065 106.814 13.9329C106.545 14.3683 106.411 14.8989 106.411 15.5261C106.411 16.1351 106.546 16.6573 106.814 17.0927C107.14 17.6191 107.594 17.8823 108.18 17.8823C108.754 17.8823 109.204 17.6149 109.528 17.0787C109.808 16.6349 109.946 16.1085 109.946 15.4995Z" fill="#101828"/>
<path d="M118.791 18.8063H117.44L117.328 18.0461H117.286C116.824 18.6523 116.165 18.9561 115.309 18.9561C114.67 18.9561 114.153 18.7559 113.764 18.3583C113.411 17.9971 113.234 17.5477 113.234 17.0143C113.234 16.2079 113.579 15.5933 114.273 15.1677C114.965 14.7421 115.938 14.5335 117.192 14.5433V14.4201C117.192 13.5507 116.724 13.1167 115.786 13.1167C115.118 13.1167 114.53 13.2805 114.021 13.6053L113.715 12.6421C114.344 12.2627 115.121 12.0723 116.037 12.0723C117.806 12.0723 118.694 12.9823 118.694 14.8023V17.2327C118.694 17.8921 118.727 18.4171 118.791 18.8063ZM117.229 16.5383V15.5205C115.569 15.4925 114.739 15.9363 114.739 16.8505C114.739 17.1949 114.834 17.4525 115.028 17.6247C115.222 17.7969 115.469 17.8823 115.763 17.8823C116.093 17.8823 116.402 17.7801 116.683 17.5771C116.966 17.3727 117.14 17.1137 117.205 16.7959C117.22 16.7245 117.229 16.6377 117.229 16.5383Z" fill="#101828"/>
<path d="M127.344 18.8064H126.009L125.939 17.7466H125.897C125.47 18.553 124.744 18.9562 123.723 18.9562C122.907 18.9562 122.228 18.644 121.69 18.0196C121.151 17.3952 120.883 16.5846 120.883 15.5892C120.883 14.521 121.174 13.6558 121.76 12.995C122.327 12.379 123.022 12.071 123.849 12.071C124.758 12.071 125.394 12.3692 125.756 12.967H125.785V9.17859H127.291V17.0284C127.291 17.671 127.308 18.2632 127.344 18.8064ZM125.785 16.0232V14.9228C125.785 14.7324 125.771 14.5784 125.743 14.4608C125.659 14.108 125.476 13.8112 125.199 13.5718C124.919 13.3324 124.582 13.212 124.193 13.212C123.631 13.212 123.192 13.429 122.869 13.8644C122.548 14.2998 122.386 14.8556 122.386 15.5346C122.386 16.187 122.54 16.7162 122.849 17.1236C123.174 17.5576 123.614 17.7746 124.164 17.7746C124.658 17.7746 125.053 17.594 125.353 17.2314C125.643 16.8968 125.785 16.4936 125.785 16.0232Z" fill="#101828"/>
<path d="M140.214 15.4519C140.214 16.4669 139.916 17.2985 139.322 17.9509C138.699 18.6215 137.874 18.9561 136.842 18.9561C135.85 18.9561 135.059 18.6355 134.467 17.9915C133.878 17.3489 133.584 16.5383 133.584 15.5611C133.584 14.5391 133.887 13.7005 134.496 13.0495C135.105 12.3985 135.923 12.0723 136.955 12.0723C137.948 12.0723 138.747 12.3929 139.351 13.0355C139.925 13.6599 140.214 14.4663 140.214 15.4519ZM138.654 15.4995C138.654 14.8905 138.519 14.3683 138.251 13.9329C137.933 13.4065 137.485 13.1433 136.899 13.1433C136.296 13.1433 135.837 13.4065 135.52 13.9329C135.25 14.3683 135.116 14.8989 135.116 15.5261C135.116 16.1351 135.251 16.6573 135.52 17.0927C135.846 17.6191 136.299 17.8823 136.885 17.8823C137.459 17.8823 137.912 17.6149 138.236 17.0787C138.513 16.6349 138.654 16.1085 138.654 15.4995Z" fill="#101828"/>
<path d="M148.305 18.8064H146.801V15.0264C146.801 13.8616 146.348 13.2792 145.436 13.2792C144.989 13.2792 144.629 13.4388 144.35 13.7594C144.072 14.08 143.932 14.458 143.932 14.8906V18.805H142.426V14.0926C142.426 13.513 142.409 12.8844 142.373 12.204H143.694L143.764 13.2358H143.806C143.983 12.9152 144.244 12.6506 144.586 12.4392C144.995 12.1928 145.45 12.0682 145.951 12.0682C146.582 12.0682 147.107 12.267 147.525 12.666C148.046 13.1546 148.305 13.884 148.305 14.8528V18.8064Z" fill="#101828"/>
<path d="M158.431 13.3055H156.774V16.5115C156.774 17.3263 157.068 17.7337 157.651 17.7337C157.921 17.7337 158.145 17.7113 158.322 17.6651L158.361 18.7781C158.063 18.8873 157.673 18.9419 157.192 18.9419C156.597 18.9419 156.135 18.7655 155.8 18.4127C155.464 18.0599 155.298 17.4663 155.298 16.6333V13.3055H154.309V12.2065H155.298V10.9969L156.773 10.5629V12.2051H158.43V13.3055H158.431Z" fill="#101828"/>
<path d="M166.398 18.8064H164.892V15.0544C164.892 13.8714 164.438 13.2792 163.529 13.2792C162.831 13.2792 162.355 13.6222 162.093 14.3082C162.049 14.4524 162.023 14.6288 162.023 14.836V18.805H160.52V9.17859H162.023V13.156H162.052C162.525 12.4322 163.205 12.071 164.085 12.071C164.708 12.071 165.224 12.2698 165.633 12.6688C166.143 13.1658 166.398 13.905 166.398 14.8822V18.8064Z" fill="#101828"/>
<path d="M174.615 15.1945C174.615 15.4577 174.595 15.6789 174.559 15.8595H170.046C170.067 16.5119 170.282 17.0089 170.7 17.3533C171.082 17.6613 171.574 17.8153 172.177 17.8153C172.845 17.8153 173.454 17.7117 174.002 17.5031L174.238 18.5223C173.596 18.7939 172.841 18.9297 171.966 18.9297C170.918 18.9297 170.092 18.6287 169.495 18.0267C168.895 17.4247 168.598 16.6169 168.598 15.6033C168.598 14.6079 168.875 13.7791 169.433 13.1183C170.016 12.4127 170.805 12.0599 171.8 12.0599C172.773 12.0599 173.513 12.4127 174.012 13.1183C174.416 13.6783 174.615 14.3713 174.615 15.1945ZM173.18 14.8151C173.191 14.3797 173.092 14.0045 172.888 13.6881C172.627 13.2807 172.229 13.0763 171.691 13.0763C171.199 13.0763 170.799 13.2751 170.493 13.6741C170.243 13.9919 170.095 14.3713 170.046 14.8151H173.18Z" fill="#101828"/>
</g>
<defs>
<clipPath id="clip0_798_6839">
<rect width="193.846" height="56" fill="white" transform="translate(0.574219)"/>
</clipPath>
</defs>
</svg>
