<svg width="194" height="56" viewBox="0 0 194 56" fill="none" xmlns="http://www.w3.org/2000/svg">
<g clip-path="url(#clip0_798_6870)">
<path d="M186.83 56H7.59003C3.64853 56 0.42041 52.8482 0.42041 49V7C0.42041 3.15175 3.64853 2.95956e-06 7.59003 2.95956e-06H186.83C190.772 2.95956e-06 194 3.15175 194 7V49C194 52.8482 190.772 56 186.83 56Z" fill="white"/>
<path d="M68.414 14.3416C68.414 15.5106 68.0555 16.4468 67.3493 17.1451C66.5374 17.9728 65.4799 18.3893 64.184 18.3893C62.9454 18.3893 61.8879 17.9658 61.0204 17.1311C60.151 16.2841 59.7173 15.2446 59.7173 14.0003C59.7173 12.7561 60.151 11.7166 61.0204 10.8766C61.8879 10.0348 62.9454 9.61133 64.184 9.61133C64.8005 9.61133 65.3884 9.73558 65.9495 9.96658C66.5087 10.1993 66.964 10.5143 67.2938 10.9028L66.5445 11.6413C65.9692 10.9781 65.1859 10.6508 64.184 10.6508C63.2806 10.6508 62.4973 10.9588 61.8323 11.5801C61.1745 12.2031 60.8447 13.0098 60.8447 14.0003C60.8447 14.9908 61.1745 15.8046 61.8323 16.4276C62.4973 17.0418 63.2806 17.3568 64.184 17.3568C65.1429 17.3568 65.9495 17.0418 66.5858 16.4206C67.0052 16.0093 67.2436 15.4423 67.3063 14.7178H64.184V13.7063H68.3495C68.3997 13.9251 68.414 14.1368 68.414 14.3416Z" fill="#101828" stroke="#101828" stroke-width="0.16" stroke-miterlimit="10"/>
<path d="M75.023 10.8342H71.1101V13.4942H74.6376V14.5057H71.1101V17.1657H75.023V18.1965H70.0024V9.80347H75.023V10.8342Z" fill="#101828" stroke="#101828" stroke-width="0.16" stroke-miterlimit="10"/>
<path d="M79.686 18.1965H78.5783V10.8342H76.1782V9.80347H82.0878V10.8342H79.686V18.1965Z" fill="#101828" stroke="#101828" stroke-width="0.16" stroke-miterlimit="10"/>
<path d="M86.3638 18.1965V9.80347H87.4697V18.1965H86.3638Z" fill="#101828" stroke="#101828" stroke-width="0.16" stroke-miterlimit="10"/>
<path d="M92.3734 18.1965H91.2747V10.8342H88.8657V9.80347H94.7824V10.8342H92.3734V18.1965Z" fill="#101828" stroke="#101828" stroke-width="0.16" stroke-miterlimit="10"/>
<path d="M105.97 17.1171C105.122 17.9658 104.071 18.3893 102.819 18.3893C101.558 18.3893 100.508 17.9658 99.6603 17.1171C98.8143 16.2701 98.3931 15.2306 98.3931 14.0003C98.3931 12.7701 98.8143 11.7306 99.6603 10.8836C100.508 10.0348 101.558 9.61133 102.819 9.61133C104.064 9.61133 105.115 10.0348 105.962 10.8906C106.816 11.7446 107.237 12.7771 107.237 14.0003C107.237 15.2306 106.816 16.2701 105.97 17.1171ZM100.479 16.4136C101.118 17.0418 101.894 17.3568 102.819 17.3568C103.736 17.3568 104.52 17.0418 105.15 16.4136C105.787 15.7853 106.109 14.9786 106.109 14.0003C106.109 13.0221 105.787 12.2153 105.15 11.5871C104.52 10.9588 103.736 10.6438 102.819 10.6438C101.894 10.6438 101.118 10.9588 100.479 11.5871C99.8431 12.2153 99.5205 13.0221 99.5205 14.0003C99.5205 14.9786 99.8431 15.7853 100.479 16.4136Z" fill="#101828" stroke="#101828" stroke-width="0.16" stroke-miterlimit="10"/>
<path d="M108.791 18.1965V9.80347H110.135L114.315 16.331H114.364L114.315 14.7175V9.80347H115.421V18.1965H114.267L109.89 11.347H109.841L109.89 12.9675V18.1965H108.791Z" fill="#101828" stroke="#101828" stroke-width="0.16" stroke-miterlimit="10"/>
<path d="M98.1202 30.4537C94.7523 30.4537 92.001 32.9562 92.001 36.409C92.001 39.8337 94.7523 42.3625 98.1202 42.3625C101.495 42.3625 104.247 39.8337 104.247 36.409C104.247 32.9562 101.495 30.4537 98.1202 30.4537ZM98.1202 40.0175C96.2723 40.0175 94.6824 38.5282 94.6824 36.409C94.6824 34.2617 96.2723 32.7987 98.1202 32.7987C99.9682 32.7987 101.565 34.2617 101.565 36.409C101.565 38.5282 99.9682 40.0175 98.1202 40.0175ZM84.7686 30.4537C81.3935 30.4537 78.6493 32.9562 78.6493 36.409C78.6493 39.8337 81.3935 42.3625 84.7686 42.3625C88.1419 42.3625 90.8879 39.8337 90.8879 36.409C90.8879 32.9562 88.1419 30.4537 84.7686 30.4537ZM84.7686 40.0175C82.9188 40.0175 81.3236 38.5282 81.3236 36.409C81.3236 34.2617 82.9188 32.7987 84.7686 32.7987C86.6166 32.7987 88.2064 34.2617 88.2064 36.409C88.2064 38.5282 86.6166 40.0175 84.7686 40.0175ZM68.8807 32.279V34.8095H75.0699C74.8889 36.2235 74.4049 37.263 73.6629 37.9875C72.7595 38.8625 71.3525 39.8337 68.8807 39.8337C65.0719 39.8337 62.0893 36.8325 62.0893 33.1137C62.0893 29.395 65.0719 26.3937 68.8807 26.3937C70.9402 26.3937 72.4387 27.1795 73.5446 28.198L75.371 26.4147C73.8242 24.9727 71.7665 23.865 68.8807 23.865C63.6577 23.865 59.2681 28.0142 59.2681 33.1137C59.2681 38.2132 63.6577 42.3625 68.8807 42.3625C71.7038 42.3625 73.8242 41.4595 75.4911 39.7655C77.1993 38.0977 77.7316 35.7527 77.7316 33.8592C77.7316 33.2712 77.6814 32.7305 77.5918 32.279H68.8807ZM133.848 34.2407C133.345 32.909 131.791 30.4537 128.625 30.4537C125.488 30.4537 122.877 32.867 122.877 36.409C122.877 39.7445 125.462 42.3625 128.926 42.3625C131.728 42.3625 133.345 40.6947 134.01 39.7235L131.93 38.3707C131.237 39.3612 130.292 40.0175 128.926 40.0175C127.569 40.0175 126.596 39.4102 125.972 38.2132L134.13 34.918L133.848 34.2407ZM125.531 36.2235C125.462 33.9275 127.358 32.7515 128.717 32.7515C129.781 32.7515 130.685 33.2712 130.986 34.015L125.531 36.2235ZM118.901 42.0002H121.583V24.5002H118.901V42.0002ZM114.51 31.7802H114.42C113.818 31.0837 112.669 30.4537 111.214 30.4537C108.159 30.4537 105.367 33.0717 105.367 36.4282C105.367 39.7655 108.159 42.3625 111.214 42.3625C112.669 42.3625 113.818 41.7272 114.42 41.0097H114.51V41.8637C114.51 44.1405 113.264 45.3637 111.255 45.3637C109.617 45.3637 108.6 44.2087 108.181 43.2375L105.849 44.1877C106.521 45.7662 108.301 47.7087 111.255 47.7087C114.399 47.7087 117.052 45.9027 117.052 41.5085V30.816H114.51V31.7802ZM111.443 40.0175C109.595 40.0175 108.048 38.5072 108.048 36.4282C108.048 34.33 109.595 32.7987 111.443 32.7987C113.264 32.7987 114.7 34.33 114.7 36.4282C114.7 38.5072 113.264 40.0175 111.443 40.0175ZM146.402 24.5002H139.989V42.0002H142.663V35.3695H146.402C149.372 35.3695 152.285 33.2712 152.285 29.934C152.285 26.5985 149.365 24.5002 146.402 24.5002ZM146.472 32.9352H142.663V26.9345H146.472C148.469 26.9345 149.609 28.5532 149.609 29.934C149.609 31.2885 148.469 32.9352 146.472 32.9352ZM163.003 30.4205C161.071 30.4205 159.062 31.2535 158.236 33.0997L160.609 34.071C161.12 33.0997 162.059 32.7847 163.052 32.7847C164.439 32.7847 165.846 33.5985 165.868 35.0352V35.219C165.384 34.946 164.348 34.5417 163.073 34.5417C160.517 34.5417 157.913 35.9155 157.913 38.4792C157.913 40.8242 160.007 42.3345 162.36 42.3345C164.16 42.3345 165.153 41.5417 165.776 40.6195H165.868V41.9722H168.451V35.2592C168.451 32.1565 166.077 30.4205 163.003 30.4205ZM162.681 40.0105C161.806 40.0105 160.587 39.587 160.587 38.5282C160.587 37.1737 162.107 36.654 163.423 36.654C164.601 36.654 165.153 36.9077 165.868 37.242C165.658 38.8625 164.229 40.0105 162.681 40.0105ZM177.861 30.8037L174.787 38.39H174.695L171.517 30.8037H168.633L173.408 41.4052L170.684 47.3045H173.478L180.836 30.8037H177.861ZM153.755 42.0002H156.436V24.5002H153.755V42.0002Z" fill="#101828"/>
<path d="M15.3842 10.5542C14.963 10.9847 14.7192 11.655 14.7192 12.523V43.484C14.7192 44.352 14.963 45.0222 15.3842 45.4527L15.4882 45.5472L33.2581 28.2047V27.7952L15.4882 10.4527L15.3842 10.5542Z" fill="url(#paint0_linear_798_6870)"/>
<path d="M39.175 33.9883L33.2583 28.2045V27.795L39.1822 22.0113L39.3148 22.0865L46.3303 25.9838C48.3324 27.0898 48.3324 28.9098 46.3303 30.0228L39.3148 33.913L39.175 33.9883Z" fill="url(#paint1_linear_798_6870)"/>
<path d="M39.3142 33.9136L33.2576 28.0003L15.3838 45.4531C16.0488 46.1356 17.1332 46.2178 18.3663 45.5353L39.3142 33.9136Z" fill="url(#paint2_linear_798_6870)"/>
<path d="M39.3142 22.0868L18.3663 10.465C17.1332 9.7895 16.0488 9.87175 15.3838 10.5542L33.2576 28L39.3142 22.0868Z" fill="url(#paint3_linear_798_6870)"/>
</g>
<defs>
<linearGradient id="paint0_linear_798_6870" x1="31.6803" y1="43.8064" x2="8.1917" y2="19.7486" gradientUnits="userSpaceOnUse">
<stop stop-color="#00A0FF"/>
<stop offset="0.0066" stop-color="#00A1FF"/>
<stop offset="0.2601" stop-color="#00BEFF"/>
<stop offset="0.5122" stop-color="#00D2FF"/>
<stop offset="0.7604" stop-color="#00DFFF"/>
<stop offset="1" stop-color="#00E3FF"/>
</linearGradient>
<linearGradient id="paint1_linear_798_6870" x1="48.9374" y1="27.9978" x2="14.2409" y2="27.9978" gradientUnits="userSpaceOnUse">
<stop stop-color="#FFE000"/>
<stop offset="0.4087" stop-color="#FFBD00"/>
<stop offset="0.7754" stop-color="#FFA500"/>
<stop offset="1" stop-color="#FF9C00"/>
</linearGradient>
<linearGradient id="paint2_linear_798_6870" x1="36.0208" y1="24.7858" x2="4.16833" y2="-7.83852" gradientUnits="userSpaceOnUse">
<stop stop-color="#FF3A44"/>
<stop offset="1" stop-color="#C31162"/>
</linearGradient>
<linearGradient id="paint3_linear_798_6870" x1="10.8846" y1="55.7533" x2="25.1081" y2="41.1852" gradientUnits="userSpaceOnUse">
<stop stop-color="#32A071"/>
<stop offset="0.0685" stop-color="#2DA771"/>
<stop offset="0.4762" stop-color="#15CF74"/>
<stop offset="0.8009" stop-color="#06E775"/>
<stop offset="1" stop-color="#00F076"/>
</linearGradient>
<clipPath id="clip0_798_6870">
<rect width="154.864" height="44.8" fill="white" transform="matrix(1.25 0 0 -1.25 0.42041 56)"/>
</clipPath>
</defs>
</svg>
